<svg xmlns="http://www.w3.org/2000/svg" viewBox="0 0 400 400" width="400" height="400">
    <path fill="#7b2339" fill-rule="evenodd" d="M20.571 0.819 C 11.570 3.327,3.933 10.816,1.134 19.876 C -0.664 25.699,-0.651 374.344,1.148 380.168 C 3.952 389.245,11.191 396.308,20.532 399.079 C 25.295 400.492,374.705 400.492,379.468 399.079 C 388.809 396.308,396.048 389.245,398.852 380.168 C 399.979 376.519,400.000 374.961,400.000 295.368 L 400.000 214.286 325.000 214.286 L 250.000 214.286 250.165 275.592 C 250.348 343.956,250.641 338.916,246.234 343.279 C 242.170 347.303,244.113 347.143,199.429 347.143 C 155.551 347.143,158.343 347.351,154.421 343.789 C 149.325 339.158,149.274 338.517,149.506 281.429 C 149.764 218.045,150.088 210.430,153.111 196.580 C 154.913 188.322,160.931 170.975,166.034 159.326 C 173.548 142.178,178.065 126.948,180.339 111.101 C 181.626 102.129,181.794 83.438,180.612 80.635 C 177.982 74.397,181.131 57.812,185.593 54.406 C 187.616 52.862,187.658 52.857,198.754 52.670 C 213.717 52.417,217.011 53.719,217.905 60.238 C 218.104 61.689,218.657 63.631,219.133 64.553 C 220.354 66.913,220.353 78.803,219.132 81.164 C 216.934 85.414,218.657 109.032,222.298 124.571 C 224.745 135.013,226.144 139.173,232.873 156.000 C 236.705 165.586,240.573 175.679,241.467 178.429 L 243.093 183.429 321.546 183.429 L 400.000 183.429 400.000 103.489 C 400.000 25.361,399.974 23.466,398.866 19.876 C 396.023 10.674,388.346 3.240,379.143 0.778 C 375.056 -0.315,24.498 -0.275,20.571 0.819 "></path>
</svg>
